<?xml version="1.0" standalone="no"?>
<!DOCTYPE svg PUBLIC "-//W3C//DTD SVG 20010904//EN"
 "http://www.w3.org/TR/2001/REC-SVG-20010904/DTD/svg10.dtd">
<svg version="1.0" xmlns="http://www.w3.org/2000/svg"
 width="260.000000pt" height="260.000000pt" viewBox="0 0 260.000000 260.000000"
 preserveAspectRatio="xMidYMid meet">
<metadata>
Created by potrace 1.14, written by Peter Selinger 2001-2017
</metadata>
<g transform="translate(0.000000,260.000000) scale(0.100000,-0.100000)"
fill="#000000" stroke="none">
<path d="M0 1300 l0 -1300 1300 0 1300 0 0 1300 0 1300 -1300 0 -1300 0 0
-1300z m1037 935 c35 -23 80 -111 92 -179 6 -33 16 -119 21 -191 5 -71 17
-155 25 -185 8 -30 22 -95 30 -145 23 -133 18 -125 84 -125 78 0 121 -9 121
-26 0 -11 -20 -14 -86 -14 l-86 0 7 -32 c4 -18 15 -49 25 -68 9 -19 34 -84 55
-143 46 -132 92 -195 165 -229 59 -27 63 -45 19 -82 -23 -20 -42 -26 -78 -26
-40 0 -52 5 -78 32 -51 53 -140 250 -173 385 -46 183 -29 167 -173 159 -67 -4
-146 -9 -175 -13 l-53 -5 -34 -67 c-18 -37 -58 -125 -88 -196 -30 -72 -101
-236 -157 -365 -57 -129 -112 -257 -122 -285 -25 -63 -35 -75 -64 -75 -29 0
-54 35 -54 75 0 17 27 92 60 168 71 164 69 161 135 262 64 99 132 233 185 365
22 55 40 103 40 106 0 7 -82 -2 -204 -22 -90 -15 -153 -40 -193 -76 -32 -29
-91 -33 -130 -9 -79 50 -14 87 223 130 61 11 157 23 212 27 55 4 105 9 110 13
16 10 81 186 113 306 34 126 47 280 31 365 -10 49 -9 60 11 100 39 79 119 107
184 65z m1326 -444 c32 -31 29 -89 -7 -135 -28 -37 -133 -112 -142 -103 -3 3
0 24 6 48 45 167 -94 173 -329 15 -108 -73 -201 -153 -201 -174 0 -7 8 -20 18
-30 16 -16 42 -20 173 -26 270 -12 484 -53 559 -107 59 -43 83 -97 78 -177 -3
-43 -9 -68 -20 -76 -8 -6 -18 -21 -22 -34 -4 -12 -12 -22 -18 -22 -5 0 -51
-41 -102 -92 -90 -90 -228 -206 -316 -265 -116 -78 -290 -140 -357 -128 -104
19 -146 208 -78 348 69 139 253 249 414 246 32 0 34 -2 18 -12 -251 -163 -304
-205 -347 -281 -50 -85 -36 -166 31 -181 26 -7 57 8 299 139 157 86 236 142
326 231 65 63 85 90 94 125 8 28 9 50 3 60 -13 21 -153 67 -264 85 -52 9 -193
19 -314 24 -226 7 -245 11 -292 54 -42 38 -31 76 40 143 121 116 268 217 399
275 179 79 304 97 351 50z"/>
<path d="M968 1864 c-20 -49 -66 -160 -102 -248 -36 -87 -66 -162 -66 -167 0
-13 284 2 292 15 4 6 8 24 8 39 0 29 -76 394 -90 431 -5 15 -15 -1 -42 -70z"/>
</g>
</svg>
