<svg fill="#000000" xmlns="http://www.w3.org/2000/svg"  viewBox="0 0 30 30" width="30px" height="30px"><path d="M1.448 15.732c-.064 0-.116.051-.125.121l-.295 2.694.295 2.634c.008.07.061.122.125.122.063 0 .114-.05.125-.121l.336-2.635-.336-2.694C1.563 15.782 1.512 15.732 1.448 15.732zM.339 16.763c-.063 0-.112.049-.12.117L0 18.547l.219 1.638c.008.069.058.117.12.117.061 0 .11-.048.12-.116l.26-1.639-.26-1.667C.45 16.812.4 16.763.339 16.763zM2.628 15.203c-.08 0-.142.062-.15.147l-.28 3.197.28 3.08c.007.085.071.147.15.147.078 0 .141-.062.15-.147l.318-3.081-.318-3.197C2.768 15.265 2.706 15.203 2.628 15.203zM3.816 15.091c-.093 0-.169.074-.176.173l-.264 3.284.264 3.177c.008.098.083.173.176.173.092 0 .168-.074.175-.173l.301-3.177-.301-3.285C3.983 15.165 3.908 15.091 3.816 15.091zM5.215 15.5c-.007-.113-.095-.198-.202-.198-.108 0-.195.085-.202.199l-.249 3.047.249 3.203c.007.112.094.199.202.199.107 0 .194-.085.202-.199l.283-3.203L5.215 15.5zM6.221 13.367c-.121 0-.221.098-.227.225L5.76 18.549l.234 3.203c.007.125.106.224.227.224.12 0 .22-.099.227-.225v.001l.265-3.203-.265-4.958C6.441 13.466 6.341 13.367 6.221 13.367zM7.419 12.226c-.136 0-.247.11-.253.25l-.219 6.091.219 3.184C7.172 21.89 7.283 22 7.419 22c.135 0 .247-.11.252-.25v.002l.248-3.184-.247-6.092C7.666 12.335 7.554 12.226 7.419 12.226zM8.665 11.675c-.151 0-.273.122-.278.277l-.204 6.599.204 3.151c.006.154.127.275.278.275.15 0 .272-.121.278-.276v.002l.231-3.151-.231-6.6C8.937 11.797 8.815 11.675 8.665 11.675zM10.206 11.73c-.006-.17-.139-.302-.304-.302-.166 0-.299.133-.304.302l-.189 6.821.189 3.131c.005.168.138.3.304.3.165 0 .298-.132.304-.302l.213-3.129L10.206 11.73zM11.148 11.577c-.181 0-.325.144-.33.328l-.174 6.647.174 3.101c.004.182.149.326.329.326.18 0 .324-.144.329-.328v.002l.196-3.102-.196-6.648C11.472 11.72 11.328 11.577 11.148 11.577zM12.403 11.793c-.195 0-.352.156-.355.353l-.158 6.404.158 3.082c.004.196.159.352.355.352.195 0 .351-.155.355-.353v.003l.178-3.082-.178-6.405C12.755 11.949 12.598 11.793 12.403 11.793zM13.88 10.617c-.061-.041-.133-.065-.21-.065-.075 0-.145.023-.205.062-.104.067-.173.185-.175.318l-.001.072-.143 7.547c0 .005.143 3.064.143 3.064 0 .005.001.008.001.013.005.085.037.164.089.226.07.084.175.138.292.138.103 0 .198-.042.266-.112.068-.068.113-.163.114-.268l.016-.303.144-2.757-.16-7.622C14.048 10.801 13.98 10.685 13.88 10.617z"/><path d="M14.049 21.615L14.049 21.614 14.049 21.615 14.049 21.613 14.05 21.612 14.049 21.613 14.049 21.614zM15.136 9.894c-.061-.037-.131-.058-.206-.058-.097 0-.187.035-.256.093-.09.074-.148.187-.15.312l-.001.042-.166 8.271.084 1.529.083 1.488c.003.22.185.402.407.402.22 0 .403-.182.406-.405v.004l0 0 .181-3.017 0 0-.181-8.313C15.333 10.094 15.253 9.965 15.136 9.894zM26.31 14.619c-.505 0-.988.102-1.427.287-.293-3.325-3.083-5.934-6.484-5.934-.833 0-1.643.164-2.361.441-.278.108-.352.218-.355.434v11.711c.003.226.178.401.398.424.009.001 10.228 0 10.228 0 2.038 0 3.69-1.634 3.69-3.672C30 16.271 28.348 14.619 26.31 14.619z"/></svg>